<mxfile host="app.diagrams.net" modified="2020-09-14T14:14:10.949Z" agent="5.0 (Windows NT 10.0; Win64; x64) AppleWebKit/537.36 (KHTML, like Gecko) Chrome/85.0.4183.102 Safari/537.36" etag="mbD-6R8TeQJmm4G5oh3K" version="13.6.10" type="github">
  <diagram id="XLGttSntdtw_tYx_s9ki" name="Page-1">
    <mxGraphModel dx="1038" dy="531" grid="1" gridSize="10" guides="1" tooltips="1" connect="1" arrows="1" fold="1" page="1" pageScale="1" pageWidth="850" pageHeight="1100" math="0" shadow="0">
      <root>
        <mxCell id="0" />
        <mxCell id="1" parent="0" />
        <mxCell id="sVKsgsTWHpiAarIHg7IU-4" style="edgeStyle=orthogonalEdgeStyle;rounded=0;orthogonalLoop=1;jettySize=auto;html=1;entryX=0.5;entryY=0;entryDx=0;entryDy=0;" edge="1" parent="1" source="sVKsgsTWHpiAarIHg7IU-1" target="sVKsgsTWHpiAarIHg7IU-3">
          <mxGeometry relative="1" as="geometry" />
        </mxCell>
        <mxCell id="sVKsgsTWHpiAarIHg7IU-1" value="Start" style="ellipse;whiteSpace=wrap;html=1;" vertex="1" parent="1">
          <mxGeometry x="30" y="10" width="120" height="80" as="geometry" />
        </mxCell>
        <mxCell id="sVKsgsTWHpiAarIHg7IU-6" style="edgeStyle=orthogonalEdgeStyle;rounded=0;orthogonalLoop=1;jettySize=auto;html=1;" edge="1" parent="1" source="sVKsgsTWHpiAarIHg7IU-3" target="sVKsgsTWHpiAarIHg7IU-5">
          <mxGeometry relative="1" as="geometry" />
        </mxCell>
        <mxCell id="sVKsgsTWHpiAarIHg7IU-3" value="Enter Starting Balance:" style="shape=parallelogram;perimeter=parallelogramPerimeter;whiteSpace=wrap;html=1;fixedSize=1;" vertex="1" parent="1">
          <mxGeometry x="30" y="120" width="120" height="60" as="geometry" />
        </mxCell>
        <mxCell id="sVKsgsTWHpiAarIHg7IU-8" value="Yes" style="edgeStyle=orthogonalEdgeStyle;rounded=0;orthogonalLoop=1;jettySize=auto;html=1;exitX=0.5;exitY=1;exitDx=0;exitDy=0;entryX=0.5;entryY=0;entryDx=0;entryDy=0;" edge="1" parent="1" source="sVKsgsTWHpiAarIHg7IU-5" target="sVKsgsTWHpiAarIHg7IU-7">
          <mxGeometry relative="1" as="geometry" />
        </mxCell>
        <mxCell id="sVKsgsTWHpiAarIHg7IU-9" style="edgeStyle=orthogonalEdgeStyle;rounded=0;orthogonalLoop=1;jettySize=auto;html=1;exitX=1;exitY=0.5;exitDx=0;exitDy=0;entryX=1;entryY=0.5;entryDx=0;entryDy=0;" edge="1" parent="1" source="sVKsgsTWHpiAarIHg7IU-5" target="sVKsgsTWHpiAarIHg7IU-3">
          <mxGeometry relative="1" as="geometry">
            <Array as="points">
              <mxPoint x="200" y="250" />
              <mxPoint x="200" y="150" />
            </Array>
          </mxGeometry>
        </mxCell>
        <mxCell id="sVKsgsTWHpiAarIHg7IU-10" value="No" style="edgeLabel;html=1;align=center;verticalAlign=middle;resizable=0;points=[];" vertex="1" connectable="0" parent="sVKsgsTWHpiAarIHg7IU-9">
          <mxGeometry x="-0.8539" y="2" relative="1" as="geometry">
            <mxPoint as="offset" />
          </mxGeometry>
        </mxCell>
        <mxCell id="sVKsgsTWHpiAarIHg7IU-5" value="Valid Number?" style="rhombus;whiteSpace=wrap;html=1;" vertex="1" parent="1">
          <mxGeometry x="50" y="210" width="80" height="80" as="geometry" />
        </mxCell>
        <mxCell id="sVKsgsTWHpiAarIHg7IU-12" style="edgeStyle=orthogonalEdgeStyle;rounded=0;orthogonalLoop=1;jettySize=auto;html=1;" edge="1" parent="1" source="sVKsgsTWHpiAarIHg7IU-7" target="sVKsgsTWHpiAarIHg7IU-11">
          <mxGeometry relative="1" as="geometry" />
        </mxCell>
        <mxCell id="sVKsgsTWHpiAarIHg7IU-7" value="Enter Yearly Contribution:" style="shape=parallelogram;perimeter=parallelogramPerimeter;whiteSpace=wrap;html=1;fixedSize=1;" vertex="1" parent="1">
          <mxGeometry x="30" y="330" width="120" height="60" as="geometry" />
        </mxCell>
        <mxCell id="sVKsgsTWHpiAarIHg7IU-13" style="edgeStyle=orthogonalEdgeStyle;rounded=0;orthogonalLoop=1;jettySize=auto;html=1;exitX=1;exitY=0.5;exitDx=0;exitDy=0;entryX=1;entryY=0.5;entryDx=0;entryDy=0;" edge="1" parent="1" source="sVKsgsTWHpiAarIHg7IU-11" target="sVKsgsTWHpiAarIHg7IU-7">
          <mxGeometry relative="1" as="geometry">
            <Array as="points">
              <mxPoint x="200" y="450" />
              <mxPoint x="200" y="370" />
              <mxPoint x="140" y="370" />
            </Array>
          </mxGeometry>
        </mxCell>
        <mxCell id="sVKsgsTWHpiAarIHg7IU-14" value="No" style="edgeLabel;html=1;align=center;verticalAlign=middle;resizable=0;points=[];" vertex="1" connectable="0" parent="sVKsgsTWHpiAarIHg7IU-13">
          <mxGeometry x="-0.8473" y="-1" relative="1" as="geometry">
            <mxPoint as="offset" />
          </mxGeometry>
        </mxCell>
        <mxCell id="sVKsgsTWHpiAarIHg7IU-18" value="Yes" style="edgeStyle=orthogonalEdgeStyle;rounded=0;orthogonalLoop=1;jettySize=auto;html=1;entryX=0.5;entryY=0;entryDx=0;entryDy=0;" edge="1" parent="1" source="sVKsgsTWHpiAarIHg7IU-11" target="sVKsgsTWHpiAarIHg7IU-15">
          <mxGeometry relative="1" as="geometry">
            <Array as="points">
              <mxPoint x="90" y="500" />
              <mxPoint x="90" y="500" />
            </Array>
          </mxGeometry>
        </mxCell>
        <mxCell id="sVKsgsTWHpiAarIHg7IU-11" value="Valid Number?" style="rhombus;whiteSpace=wrap;html=1;" vertex="1" parent="1">
          <mxGeometry x="50" y="410" width="80" height="80" as="geometry" />
        </mxCell>
        <mxCell id="sVKsgsTWHpiAarIHg7IU-20" style="edgeStyle=orthogonalEdgeStyle;rounded=0;orthogonalLoop=1;jettySize=auto;html=1;" edge="1" parent="1" source="sVKsgsTWHpiAarIHg7IU-15" target="sVKsgsTWHpiAarIHg7IU-19">
          <mxGeometry relative="1" as="geometry" />
        </mxCell>
        <mxCell id="sVKsgsTWHpiAarIHg7IU-15" value="Enter Average Return On Investment as %:" style="shape=parallelogram;perimeter=parallelogramPerimeter;whiteSpace=wrap;html=1;fixedSize=1;" vertex="1" parent="1">
          <mxGeometry y="530" width="180" height="60" as="geometry" />
        </mxCell>
        <mxCell id="sVKsgsTWHpiAarIHg7IU-21" style="edgeStyle=orthogonalEdgeStyle;rounded=0;orthogonalLoop=1;jettySize=auto;html=1;entryX=1;entryY=0.5;entryDx=0;entryDy=0;" edge="1" parent="1" source="sVKsgsTWHpiAarIHg7IU-19" target="sVKsgsTWHpiAarIHg7IU-15">
          <mxGeometry relative="1" as="geometry">
            <mxPoint x="200" y="570" as="targetPoint" />
            <Array as="points">
              <mxPoint x="200" y="660" />
              <mxPoint x="200" y="560" />
            </Array>
          </mxGeometry>
        </mxCell>
        <mxCell id="sVKsgsTWHpiAarIHg7IU-22" value="No" style="edgeLabel;html=1;align=center;verticalAlign=middle;resizable=0;points=[];" vertex="1" connectable="0" parent="sVKsgsTWHpiAarIHg7IU-21">
          <mxGeometry x="-0.792" y="-1" relative="1" as="geometry">
            <mxPoint as="offset" />
          </mxGeometry>
        </mxCell>
        <mxCell id="sVKsgsTWHpiAarIHg7IU-23" style="edgeStyle=orthogonalEdgeStyle;rounded=0;orthogonalLoop=1;jettySize=auto;html=1;exitX=0.5;exitY=1;exitDx=0;exitDy=0;entryX=0;entryY=0.5;entryDx=0;entryDy=0;" edge="1" parent="1" source="sVKsgsTWHpiAarIHg7IU-19" target="sVKsgsTWHpiAarIHg7IU-25">
          <mxGeometry relative="1" as="geometry">
            <mxPoint x="250" y="70" as="targetPoint" />
            <Array as="points">
              <mxPoint x="90" y="720" />
              <mxPoint x="240" y="720" />
              <mxPoint x="240" y="80" />
            </Array>
          </mxGeometry>
        </mxCell>
        <mxCell id="sVKsgsTWHpiAarIHg7IU-24" value="Yes" style="edgeLabel;html=1;align=center;verticalAlign=middle;resizable=0;points=[];" vertex="1" connectable="0" parent="sVKsgsTWHpiAarIHg7IU-23">
          <mxGeometry x="-0.8824" y="-1" relative="1" as="geometry">
            <mxPoint as="offset" />
          </mxGeometry>
        </mxCell>
        <mxCell id="sVKsgsTWHpiAarIHg7IU-19" value="Valid %?" style="rhombus;whiteSpace=wrap;html=1;" vertex="1" parent="1">
          <mxGeometry x="50" y="620" width="80" height="80" as="geometry" />
        </mxCell>
        <mxCell id="sVKsgsTWHpiAarIHg7IU-27" style="edgeStyle=orthogonalEdgeStyle;rounded=0;orthogonalLoop=1;jettySize=auto;html=1;" edge="1" parent="1" source="sVKsgsTWHpiAarIHg7IU-25" target="sVKsgsTWHpiAarIHg7IU-26">
          <mxGeometry relative="1" as="geometry" />
        </mxCell>
        <mxCell id="sVKsgsTWHpiAarIHg7IU-25" value="Enter Number of years:" style="shape=parallelogram;perimeter=parallelogramPerimeter;whiteSpace=wrap;html=1;fixedSize=1;" vertex="1" parent="1">
          <mxGeometry x="250" y="50" width="120" height="60" as="geometry" />
        </mxCell>
        <mxCell id="sVKsgsTWHpiAarIHg7IU-28" style="edgeStyle=orthogonalEdgeStyle;rounded=0;orthogonalLoop=1;jettySize=auto;html=1;entryX=1;entryY=0.5;entryDx=0;entryDy=0;" edge="1" parent="1" source="sVKsgsTWHpiAarIHg7IU-26" target="sVKsgsTWHpiAarIHg7IU-25">
          <mxGeometry relative="1" as="geometry">
            <Array as="points">
              <mxPoint x="400" y="190" />
              <mxPoint x="400" y="90" />
              <mxPoint x="360" y="90" />
            </Array>
          </mxGeometry>
        </mxCell>
        <mxCell id="sVKsgsTWHpiAarIHg7IU-29" value="No" style="edgeLabel;html=1;align=center;verticalAlign=middle;resizable=0;points=[];" vertex="1" connectable="0" parent="sVKsgsTWHpiAarIHg7IU-28">
          <mxGeometry x="-0.852" relative="1" as="geometry">
            <mxPoint as="offset" />
          </mxGeometry>
        </mxCell>
        <mxCell id="sVKsgsTWHpiAarIHg7IU-31" value="Yes" style="edgeStyle=orthogonalEdgeStyle;rounded=0;orthogonalLoop=1;jettySize=auto;html=1;entryX=0.5;entryY=0;entryDx=0;entryDy=0;" edge="1" parent="1" source="sVKsgsTWHpiAarIHg7IU-26" target="sVKsgsTWHpiAarIHg7IU-30">
          <mxGeometry relative="1" as="geometry" />
        </mxCell>
        <mxCell id="sVKsgsTWHpiAarIHg7IU-26" value="Valid Number?" style="rhombus;whiteSpace=wrap;html=1;" vertex="1" parent="1">
          <mxGeometry x="270" y="150" width="80" height="80" as="geometry" />
        </mxCell>
        <mxCell id="sVKsgsTWHpiAarIHg7IU-33" style="edgeStyle=orthogonalEdgeStyle;rounded=0;orthogonalLoop=1;jettySize=auto;html=1;" edge="1" parent="1" source="sVKsgsTWHpiAarIHg7IU-30" target="sVKsgsTWHpiAarIHg7IU-32">
          <mxGeometry relative="1" as="geometry" />
        </mxCell>
        <mxCell id="sVKsgsTWHpiAarIHg7IU-30" value="Print Output For Program" style="rounded=0;whiteSpace=wrap;html=1;" vertex="1" parent="1">
          <mxGeometry x="250" y="290" width="120" height="60" as="geometry" />
        </mxCell>
        <mxCell id="sVKsgsTWHpiAarIHg7IU-34" style="edgeStyle=orthogonalEdgeStyle;rounded=0;orthogonalLoop=1;jettySize=auto;html=1;entryX=1.007;entryY=0.345;entryDx=0;entryDy=0;entryPerimeter=0;" edge="1" parent="1" source="sVKsgsTWHpiAarIHg7IU-32" target="sVKsgsTWHpiAarIHg7IU-1">
          <mxGeometry relative="1" as="geometry">
            <Array as="points">
              <mxPoint x="440" y="450" />
              <mxPoint x="440" y="38" />
            </Array>
          </mxGeometry>
        </mxCell>
        <mxCell id="sVKsgsTWHpiAarIHg7IU-35" value="Yes" style="edgeLabel;html=1;align=center;verticalAlign=middle;resizable=0;points=[];" vertex="1" connectable="0" parent="sVKsgsTWHpiAarIHg7IU-34">
          <mxGeometry x="-0.9399" y="-1" relative="1" as="geometry">
            <mxPoint as="offset" />
          </mxGeometry>
        </mxCell>
        <mxCell id="sVKsgsTWHpiAarIHg7IU-37" value="No" style="edgeStyle=orthogonalEdgeStyle;rounded=0;orthogonalLoop=1;jettySize=auto;html=1;entryX=0.5;entryY=0;entryDx=0;entryDy=0;" edge="1" parent="1" source="sVKsgsTWHpiAarIHg7IU-32" target="sVKsgsTWHpiAarIHg7IU-36">
          <mxGeometry relative="1" as="geometry" />
        </mxCell>
        <mxCell id="sVKsgsTWHpiAarIHg7IU-32" value="Restart?" style="rhombus;whiteSpace=wrap;html=1;" vertex="1" parent="1">
          <mxGeometry x="270" y="410" width="80" height="80" as="geometry" />
        </mxCell>
        <mxCell id="sVKsgsTWHpiAarIHg7IU-36" value="End" style="ellipse;whiteSpace=wrap;html=1;" vertex="1" parent="1">
          <mxGeometry x="250" y="530" width="120" height="80" as="geometry" />
        </mxCell>
      </root>
    </mxGraphModel>
  </diagram>
</mxfile>
